<?xml version="1.0" standalone="no"?>
<!DOCTYPE svg PUBLIC "-//W3C//DTD SVG 20010904//EN"
 "http://www.w3.org/TR/2001/REC-SVG-20010904/DTD/svg10.dtd">
<svg version="1.0" xmlns="http://www.w3.org/2000/svg"
 width="300.000000pt" height="300.000000pt" viewBox="0 0 300.000000 300.000000"
 preserveAspectRatio="xMidYMid meet">
<metadata>
Created by potrace 1.10, written by Peter Selinger 2001-2011
</metadata>
<g transform="translate(0.000000,300.000000) scale(0.100000,-0.100000)"
fill="#fff" stroke="none">
<path d="M1520 2265 c-166 -27 -340 -94 -473 -182 -43 -28 -160 -134 -292
-263 -279 -272 -424 -376 -640 -460 -88 -34 -102 -48 -84 -82 15 -28 49 -20
194 51 226 109 390 233 597 452 73 78 169 168 213 202 100 75 249 148 380 184
89 24 117 27 255 28 126 0 165 -3 210 -19 156 -53 239 -133 289 -277 20 -59
45 -189 37 -196 -2 -2 -21 27 -41 67 -93 176 -249 236 -398 152 -138 -77 -182
-252 -123 -483 73 -288 263 -528 507 -644 131 -61 212 -78 394 -78 160 0 221
8 362 49 63 18 89 53 61 81 -15 14 -20 14 -64 -1 -116 -38 -208 -51 -364 -50
-205 0 -305 26 -452 120 -210 134 -380 422 -395 669 -9 146 25 233 108 275 61
32 118 36 171 12 57 -25 89 -64 158 -194 51 -95 57 -103 85 -103 43 0 55 31
55 145 0 139 -29 234 -103 341 -63 93 -165 160 -292 194 -86 22 -253 27 -355
10z m710 -594 c0 -37 -19 -50 -37 -26 -23 33 -16 47 30 54 4 0 7 -12 7 -28z"/>
</g>
</svg>
